STARTFONT 2.1
FONT -Monotype-Arial Narrow-Bold-R-Normal--25-180-100-100-P-100-iso8859-4
SIZE 18 100 100
FONTBOUNDINGBOX 24 29 -3 -6

STARTPROPERTIES 24
FOUNDRY "Monotype"
FAMILY_NAME "Arial Narrow"
WEIGHT_NAME "Bold"
SLANT "R"
SETWIDTH_NAME "Normal"
ADD_STYLE_NAME ""
PIXEL_SIZE 25
POINT_SIZE 180
RESOLUTION_X 100
RESOLUTION_Y 100
SPACING "P"
AVERAGE_WIDTH 100
CHARSET_REGISTRY "iso8859"
CHARSET_ENCODING "4"
FACE_NAME "Arial Narrow Bold ISO Latin4"
_DEC_DEVICE_FONTNAMES "PS=arialnarrow-b-lat4"
COPYRIGHT "Copyright (c) 1993 Monotype Typography Ltd."
CAP_HEIGHT 20
X_HEIGHT 15
WEIGHT 10
QUAD_WIDTH 13
DEFAULT_CHAR 160
FONT_DESCENT 6
FONT_ASCENT 23
ENDPROPERTIES

CHARS 191

STARTCHAR space
ENCODING 32
SWIDTH 228 0
DWIDTH 6 0
BBX 0 0 0 0
BITMAP
ENDCHAR

STARTCHAR exclam
ENCODING 33
SWIDTH 273 0
DWIDTH 7 0
BBX 3 18 2 0
BITMAP
E0
E0
E0
E0
E0
E0
E0
E0
E0
E0
E0
40
40
40
00
E0
E0
E0
ENDCHAR

STARTCHAR quotedbl
ENCODING 34
SWIDTH 389 0
DWIDTH 10 0
BBX 8 7 1 11
BITMAP
E7
E7
E7
E7
E7
E7
E7
ENDCHAR

STARTCHAR numbersign
ENCODING 35
SWIDTH 456 0
DWIDTH 11 0
BBX 11 18 0 0
BITMAP
0CE0
0CC0
1CC0
1CC0
FFE0
FFE0
DFE0
3980
3980
3180
FFE0
FFE0
BFE0
7300
7300
6300
6700
6700
ENDCHAR

STARTCHAR dollar
ENCODING 36
SWIDTH 456 0
DWIDTH 11 0
BBX 9 22 1 -2
BITMAP
0800
0800
3E00
7F00
FF80
EB80
EB00
E800
E800
7C00
7F00
1F80
0F80
0980
C980
E980
EB80
FF80
7F00
1C00
0800
0800
ENDCHAR

STARTCHAR percent
ENCODING 37
SWIDTH 729 0
DWIDTH 18 0
BBX 16 19 1 -1
BITMAP
7818
7C30
CC30
CC30
CC60
CC60
CCC0
7CC0
7880
019E
019E
0333
0333
0633
0633
0433
0C33
0C1E
181E
ENDCHAR

STARTCHAR ampersand
ENCODING 38
SWIDTH 592 0
DWIDTH 15 0
BBX 14 18 1 0
BITMAP
0F80
1FC0
39C0
38C0
38C0
3DC0
1F80
1F00
3F00
7FA0
73B8
E3F0
E1F0
E0F0
F1F8
7FFC
3FB8
1E18
ENDCHAR

STARTCHAR quoteright
ENCODING 39
SWIDTH 228 0
DWIDTH 6 0
BBX 3 7 1 11
BITMAP
E0
E0
E0
60
60
C0
80
ENDCHAR

STARTCHAR parenleft
ENCODING 40
SWIDTH 273 0
DWIDTH 7 0
BBX 5 24 1 -6
BITMAP
18
18
30
30
70
70
60
60
E0
E0
E0
E0
E0
E0
E0
E0
60
60
70
70
30
30
18
18
ENDCHAR

STARTCHAR parenright
ENCODING 41
SWIDTH 273 0
DWIDTH 7 0
BBX 5 24 1 -6
BITMAP
C0
C0
60
60
70
70
30
38
38
38
38
38
38
38
38
38
30
30
70
70
60
60
C0
C0
ENDCHAR

STARTCHAR asterisk
ENCODING 42
SWIDTH 319 0
DWIDTH 8 0
BBX 8 9 0 9
BITMAP
18
18
5A
FF
7E
38
34
66
24
ENDCHAR

STARTCHAR plus
ENCODING 43
SWIDTH 479 0
DWIDTH 12 0
BBX 11 13 0 2
BITMAP
0E00
0E00
0E00
0E00
0E00
FFE0
FFE0
FFE0
0E00
0E00
0E00
0E00
0E00
ENDCHAR

STARTCHAR comma
ENCODING 44
SWIDTH 228 0
DWIDTH 6 0
BBX 3 7 1 -4
BITMAP
E0
E0
E0
60
60
C0
80
ENDCHAR

STARTCHAR minus
ENCODING 45
SWIDTH 479 0
DWIDTH 12 0
BBX 10 3 1 7
BITMAP
FFC0
FFC0
FFC0
ENDCHAR

STARTCHAR period
ENCODING 46
SWIDTH 228 0
DWIDTH 6 0
BBX 3 3 1 0
BITMAP
E0
E0
E0
ENDCHAR

STARTCHAR slash
ENCODING 47
SWIDTH 228 0
DWIDTH 6 0
BBX 6 19 0 -1
BITMAP
0C
18
18
18
18
18
30
30
30
30
30
60
60
60
60
60
C0
C0
C0
ENDCHAR

STARTCHAR zero
ENCODING 48
SWIDTH 456 0
DWIDTH 11 0
BBX 10 18 1 0
BITMAP
1E00
3F00
7F80
7380
E1C0
E1C0
E1C0
E1C0
E1C0
E1C0
E1C0
E1C0
E1C0
E1C0
7380
7F80
3F00
1E00
ENDCHAR

STARTCHAR one
ENCODING 49
SWIDTH 456 0
DWIDTH 11 0
BBX 7 18 1 0
BITMAP
0E
0E
1E
3E
FE
EE
CE
0E
0E
0E
0E
0E
0E
0E
0E
0E
0E
0E
ENDCHAR

STARTCHAR two
ENCODING 50
SWIDTH 456 0
DWIDTH 11 0
BBX 10 18 1 0
BITMAP
1E00
3F80
7F80
71C0
E1C0
61C0
01C0
03C0
0380
0780
0F00
1E00
3C00
3800
7000
7FC0
FFC0
FFC0
ENDCHAR

STARTCHAR three
ENCODING 51
SWIDTH 456 0
DWIDTH 11 0
BBX 10 18 1 0
BITMAP
1C00
7F00
7F00
F780
E380
6380
0380
0F00
0E00
1F00
0380
01C0
01C0
61C0
E1C0
7F80
3F00
1E00
ENDCHAR

STARTCHAR four
ENCODING 52
SWIDTH 456 0
DWIDTH 11 0
BBX 11 18 0 0
BITMAP
0380
0780
0780
0F80
0F80
1D80
1B80
3B80
7380
7380
E380
FFE0
FFE0
FFE0
0380
0380
0380
0380
ENDCHAR

STARTCHAR five
ENCODING 53
SWIDTH 456 0
DWIDTH 11 0
BBX 10 18 1 0
BITMAP
3F80
3F80
7F80
7000
7000
7600
7F00
7F80
E3C0
01C0
01C0
01C0
21C0
E1C0
F380
7F80
3F00
1E00
ENDCHAR

STARTCHAR six
ENCODING 54
SWIDTH 456 0
DWIDTH 11 0
BBX 10 18 1 0
BITMAP
1E00
3F00
7F80
73C0
6180
E000
EE00
EF00
FF80
F1C0
E1C0
E1C0
E1C0
E1C0
7380
7F80
3F00
1E00
ENDCHAR

STARTCHAR seven
ENCODING 55
SWIDTH 456 0
DWIDTH 11 0
BBX 10 18 1 0
BITMAP
FFC0
FFC0
FFC0
0380
0700
0700
0E00
0E00
0C00
1C00
1C00
1800
1800
3800
3800
3800
3800
3800
ENDCHAR

STARTCHAR eight
ENCODING 56
SWIDTH 456 0
DWIDTH 11 0
BBX 10 18 1 0
BITMAP
1E00
7F80
7F80
F3C0
E1C0
E1C0
7380
5F80
3F00
7F80
71C0
E1C0
E1C0
E1C0
F3C0
7F80
3F80
1E00
ENDCHAR

STARTCHAR nine
ENCODING 57
SWIDTH 456 0
DWIDTH 11 0
BBX 10 18 0 0
BITMAP
1E00
3F00
7F80
7380
E1C0
E1C0
E1C0
E1C0
63C0
7FC0
3EC0
1DC0
01C0
E1C0
7380
7F80
3F00
1E00
ENDCHAR

STARTCHAR colon
ENCODING 58
SWIDTH 273 0
DWIDTH 7 0
BBX 3 13 2 0
BITMAP
E0
E0
E0
00
00
00
00
00
00
00
E0
E0
E0
ENDCHAR

STARTCHAR semicolon
ENCODING 59
SWIDTH 273 0
DWIDTH 7 0
BBX 3 17 2 -4
BITMAP
E0
E0
E0
00
00
00
00
00
00
00
E0
E0
E0
60
60
C0
80
ENDCHAR

STARTCHAR less
ENCODING 60
SWIDTH 479 0
DWIDTH 12 0
BBX 10 14 1 2
BITMAP
0040
00C0
03C0
0FC0
3F80
FC00
E000
F000
FC00
3F00
0FC0
07C0
01C0
0040
ENDCHAR

STARTCHAR equal
ENCODING 61
SWIDTH 479 0
DWIDTH 12 0
BBX 10 8 1 5
BITMAP
FFC0
FFC0
FFC0
0000
0000
FFC0
FFC0
FFC0
ENDCHAR

STARTCHAR greater
ENCODING 62
SWIDTH 479 0
DWIDTH 12 0
BBX 10 14 1 2
BITMAP
8000
C000
F000
FC00
7F00
0FC0
01C0
03C0
0FC0
3F00
FE00
F800
E000
8000
ENDCHAR

STARTCHAR question
ENCODING 63
SWIDTH 501 0
DWIDTH 13 0
BBX 11 18 1 0
BITMAP
1F00
3F80
7FC0
71E0
E0E0
60E0
00E0
01C0
03C0
0780
0F00
0E00
0E00
0E00
0000
0E00
0E00
0E00
ENDCHAR

STARTCHAR at
ENCODING 64
SWIDTH 800 0
DWIDTH 20 0
BBX 19 23 0 -5
BITMAP
01FC00
07FF00
0F0780
1C0180
3800C0
31EEC0
63FE60
639C60
E71C60
C60C60
CE0C60
CE1C60
CE1CC0
CE18C0
CE3980
677F80
67EF00
739C00
300060
3C01C0
1F07C0
07FF00
01FC00
ENDCHAR

STARTCHAR A
ENCODING 65
SWIDTH 592 0
DWIDTH 15 0
BBX 15 18 0 0
BITMAP
0380
0780
07C0
07C0
0EC0
0EE0
0EE0
1CE0
1C70
1C70
3870
3FF8
3FF8
7FF8
703C
701C
F01C
E01E
ENDCHAR

STARTCHAR B
ENCODING 66
SWIDTH 592 0
DWIDTH 15 0
BBX 12 18 2 0
BITMAP
FF80
FFC0
FFE0
E0E0
E0E0
E0E0
E0E0
FF80
FFC0
FFE0
E0E0
E070
E070
E070
E0F0
FFE0
FFE0
FFC0
ENDCHAR

STARTCHAR C
ENCODING 67
SWIDTH 592 0
DWIDTH 15 0
BBX 13 18 1 0
BITMAP
0F80
1FE0
3FF0
78F0
7078
E020
E000
E000
E000
E000
E000
E020
F038
7070
78F0
3FF0
1FE0
0F80
ENDCHAR

STARTCHAR D
ENCODING 68
SWIDTH 592 0
DWIDTH 15 0
BBX 12 18 2 0
BITMAP
FF00
FFC0
FFE0
E1E0
E0F0
E070
E070
E070
E070
E070
E070
E070
E070
E0E0
E1E0
FFC0
FFC0
FF00
ENDCHAR

STARTCHAR E
ENCODING 69
SWIDTH 547 0
DWIDTH 14 0
BBX 11 18 1 0
BITMAP
FFE0
FFE0
FFE0
E000
E000
E000
E000
FFC0
FFC0
FFC0
E000
E000
E000
E000
E000
FFE0
FFE0
FFE0
ENDCHAR

STARTCHAR F
ENCODING 70
SWIDTH 501 0
DWIDTH 13 0
BBX 10 18 1 0
BITMAP
FFC0
FFC0
FFC0
E000
E000
E000
E000
FF80
FF80
FF80
E000
E000
E000
E000
E000
E000
E000
E000
ENDCHAR

STARTCHAR G
ENCODING 71
SWIDTH 638 0
DWIDTH 16 0
BBX 14 18 1 0
BITMAP
0FE0
1FF0
3FF8
7878
703C
F010
E000
E000
E0FC
E0FC
E0FC
F01C
701C
701C
7C7C
3FFC
1FF8
07C0
ENDCHAR

STARTCHAR H
ENCODING 72
SWIDTH 592 0
DWIDTH 15 0
BBX 12 18 1 0
BITMAP
E070
E070
E070
E070
E070
E070
E070
FFF0
FFF0
FFF0
E070
E070
E070
E070
E070
E070
E070
E070
ENDCHAR

STARTCHAR I
ENCODING 73
SWIDTH 228 0
DWIDTH 6 0
BBX 3 18 1 0
BITMAP
E0
E0
E0
E0
E0
E0
E0
E0
E0
E0
E0
E0
E0
E0
E0
E0
E0
E0
ENDCHAR

STARTCHAR J
ENCODING 74
SWIDTH 456 0
DWIDTH 11 0
BBX 9 18 1 0
BITMAP
0380
0380
0380
0380
0380
0380
0380
0380
0380
0380
0380
0380
C380
E380
E780
FF00
7F00
3C00
ENDCHAR

STARTCHAR K
ENCODING 75
SWIDTH 592 0
DWIDTH 15 0
BBX 13 18 2 0
BITMAP
E078
E0F0
E1E0
E3C0
E3C0
E780
EE00
EF00
FF00
FF80
FB80
F3C0
E1C0
E1E0
E0F0
E0F0
E078
E078
ENDCHAR

STARTCHAR L
ENCODING 76
SWIDTH 501 0
DWIDTH 13 0
BBX 10 18 1 0
BITMAP
E000
E000
E000
E000
E000
E000
E000
E000
E000
E000
E000
E000
E000
E000
E000
FFC0
FFC0
FFC0
ENDCHAR

STARTCHAR M
ENCODING 77
SWIDTH 683 0
DWIDTH 17 0
BBX 14 18 2 0
BITMAP
F87C
F87C
F87C
F87C
E86C
ECEC
ECEC
ECDC
ECDC
ECDC
EEDC
EEDC
E79C
E79C
E79C
E79C
E79C
E31C
ENDCHAR

STARTCHAR N
ENCODING 78
SWIDTH 592 0
DWIDTH 15 0
BBX 12 18 1 0
BITMAP
E070
F070
F070
F870
F870
FC70
EC70
EE70
EE70
E770
E770
E3B0
E3F0
E1F0
E1F0
E0F0
E0F0
E070
ENDCHAR

STARTCHAR O
ENCODING 79
SWIDTH 638 0
DWIDTH 16 0
BBX 14 18 1 0
BITMAP
0FC0
1FE0
3FF0
7878
7038
F01C
E01C
E01C
E01C
E01C
E01C
E01C
F03C
7038
7878
3FF0
1FE0
0FC0
ENDCHAR

STARTCHAR P
ENCODING 80
SWIDTH 547 0
DWIDTH 14 0
BBX 11 18 2 0
BITMAP
FF80
FFC0
FFC0
E1E0
E0E0
E0E0
E0E0
E1E0
FFC0
FFC0
FF00
E000
E000
E000
E000
E000
E000
E000
ENDCHAR

STARTCHAR Q
ENCODING 81
SWIDTH 638 0
DWIDTH 16 0
BBX 15 19 1 -1
BITMAP
0FC0
1FE0
3FF0
7878
7038
F01C
E01C
E01C
E01C
E01C
E01C
E01C
F1BC
73F8
78F8
3FF0
1FFE
0FDC
000C
ENDCHAR

STARTCHAR R
ENCODING 82
SWIDTH 592 0
DWIDTH 15 0
BBX 13 18 2 0
BITMAP
FFC0
FFE0
FFF0
E0F0
E070
E070
E0F0
FFE0
FFE0
FF00
E380
E3C0
E1E0
E1E0
E0F0
E0F0
E078
E038
ENDCHAR

STARTCHAR S
ENCODING 83
SWIDTH 547 0
DWIDTH 14 0
BBX 11 18 1 0
BITMAP
1F00
7F80
7FC0
F1C0
E1E0
E0E0
F000
7E00
7F80
3FC0
0FE0
01E0
C0E0
E0E0
F1E0
7FC0
7FC0
1F00
ENDCHAR

STARTCHAR T
ENCODING 84
SWIDTH 501 0
DWIDTH 13 0
BBX 11 18 1 0
BITMAP
FFE0
FFE0
FFE0
0E00
0E00
0E00
0E00
0E00
0E00
0E00
0E00
0E00
0E00
0E00
0E00
0E00
0E00
0E00
ENDCHAR

STARTCHAR U
ENCODING 85
SWIDTH 592 0
DWIDTH 15 0
BBX 12 18 1 0
BITMAP
E070
E070
E070
E070
E070
E070
E070
E070
E070
E070
E070
E070
E070
F070
70F0
7FE0
3FC0
1F80
ENDCHAR

STARTCHAR V
ENCODING 86
SWIDTH 547 0
DWIDTH 14 0
BBX 14 18 0 0
BITMAP
E03C
F038
7038
7038
7870
3870
3870
38F0
3CE0
1CE0
1CE0
1EC0
0EC0
0FC0
0F80
0780
0780
0700
ENDCHAR

STARTCHAR W
ENCODING 87
SWIDTH 774 0
DWIDTH 19 0
BBX 19 18 0 0
BITMAP
E0F0E0
E0F0E0
F1F0E0
71F0E0
71F0C0
71B9C0
71B9C0
73B9C0
3BB9C0
3B9980
3B1D80
3B1D80
3F1F80
1F0F80
1E0F00
1E0F00
1E0F00
1E0700
ENDCHAR

STARTCHAR X
ENCODING 88
SWIDTH 547 0
DWIDTH 14 0
BBX 14 18 0 0
BITMAP
7038
7878
3870
3CE0
1CE0
1EC0
0FC0
0F80
0780
0F80
0FC0
1FC0
1DE0
3CE0
38F0
7870
7078
F03C
ENDCHAR

STARTCHAR Y
ENCODING 89
SWIDTH 547 0
DWIDTH 14 0
BBX 13 18 0 0
BITMAP
E038
F078
7070
78F0
38E0
3DE0
1DC0
1FC0
0F80
0780
0700
0700
0700
0700
0700
0700
0700
0700
ENDCHAR

STARTCHAR Z
ENCODING 90
SWIDTH 501 0
DWIDTH 13 0
BBX 12 18 0 0
BITMAP
7FF0
7FF0
7FF0
00E0
01E0
03C0
0380
0780
0F00
0E00
1E00
3C00
3800
7800
F000
FFF0
FFF0
FFF0
ENDCHAR

STARTCHAR bracketleft
ENCODING 91
SWIDTH 273 0
DWIDTH 7 0
BBX 5 23 1 -5
BITMAP
F8
F8
F8
E0
E0
E0
E0
E0
E0
E0
E0
E0
E0
E0
E0
E0
E0
E0
E0
E0
F8
F8
F8
ENDCHAR

STARTCHAR backslash
ENCODING 92
SWIDTH 228 0
DWIDTH 6 0
BBX 6 19 0 -1
BITMAP
C0
C0
E0
60
60
60
60
70
30
30
30
30
38
18
18
18
18
1C
0C
ENDCHAR

STARTCHAR bracketright
ENCODING 93
SWIDTH 273 0
DWIDTH 7 0
BBX 5 23 1 -5
BITMAP
F8
F8
F8
38
38
38
38
38
38
38
38
38
38
38
38
38
38
38
38
38
F8
F8
F8
ENDCHAR

STARTCHAR asciicircum
ENCODING 94
SWIDTH 479 0
DWIDTH 12 0
BBX 10 10 1 8
BITMAP
0C00
1E00
1E00
1E00
3B00
3B00
7380
7380
7180
E1C0
ENDCHAR

STARTCHAR underscore
ENCODING 95
SWIDTH 456 0
DWIDTH 11 0
BBX 13 1 -1 -3
BITMAP
FFF8
ENDCHAR

STARTCHAR quoteleft
ENCODING 96
SWIDTH 228 0
DWIDTH 6 0
BBX 3 7 1 11
BITMAP
20
60
C0
C0
E0
E0
E0
ENDCHAR

STARTCHAR a
ENCODING 97
SWIDTH 456 0
DWIDTH 11 0
BBX 10 13 0 0
BITMAP
1F00
7F80
7FC0
E1C0
01C0
0FC0
3FC0
79C0
E1C0
E1C0
F3C0
7FC0
7CC0
ENDCHAR

STARTCHAR b
ENCODING 98
SWIDTH 501 0
DWIDTH 13 0
BBX 11 18 1 0
BITMAP
E000
E000
E000
E000
E000
EF00
EF80
FFC0
F1E0
E0E0
E0E0
E0E0
E0E0
E0E0
F1C0
FFC0
EF80
E700
ENDCHAR

STARTCHAR c
ENCODING 99
SWIDTH 456 0
DWIDTH 11 0
BBX 10 13 1 0
BITMAP
1E00
3F80
7F80
71C0
E100
E000
E000
E000
E1C0
71C0
7F80
3F80
1E00
ENDCHAR

STARTCHAR d
ENCODING 100
SWIDTH 501 0
DWIDTH 13 0
BBX 11 18 1 0
BITMAP
00E0
00E0
00E0
00E0
00E0
1CE0
3F60
7FE0
71E0
E0E0
E0E0
E0E0
E0E0
E0E0
71E0
7FE0
3F60
1CE0
ENDCHAR

STARTCHAR e
ENCODING 101
SWIDTH 456 0
DWIDTH 11 0
BBX 10 13 1 0
BITMAP
1E00
3F00
7F80
6180
E1C0
FFC0
FFC0
E000
E100
73C0
7F80
3F00
1E00
ENDCHAR

STARTCHAR f
ENCODING 102
SWIDTH 273 0
DWIDTH 7 0
BBX 7 18 1 0
BITMAP
1C
3E
7C
70
70
FC
FC
FC
70
70
70
70
70
70
70
70
70
70
ENDCHAR

STARTCHAR g
ENCODING 103
SWIDTH 501 0
DWIDTH 13 0
BBX 10 18 1 -5
BITMAP
39C0
7EC0
FFC0
E3C0
E1C0
C1C0
C1C0
E1C0
E1C0
E3C0
FFC0
7DC0
19C0
81C0
E3C0
FF80
7F80
1E00
ENDCHAR

STARTCHAR h
ENCODING 104
SWIDTH 501 0
DWIDTH 13 0
BBX 10 18 1 0
BITMAP
E000
E000
E000
E000
E000
E700
EF80
FFC0
F1C0
E1C0
E1C0
E1C0
E1C0
E1C0
E1C0
E1C0
E1C0
E1C0
ENDCHAR

STARTCHAR i
ENCODING 105
SWIDTH 228 0
DWIDTH 6 0
BBX 3 18 1 0
BITMAP
E0
E0
E0
00
00
E0
E0
E0
E0
E0
E0
E0
E0
E0
E0
E0
E0
E0
ENDCHAR

STARTCHAR j
ENCODING 106
SWIDTH 228 0
DWIDTH 6 0
BBX 5 23 -1 -5
BITMAP
38
38
38
00
00
38
38
38
38
38
38
38
38
38
38
38
38
38
38
38
F8
F0
F0
ENDCHAR

STARTCHAR k
ENCODING 107
SWIDTH 456 0
DWIDTH 11 0
BBX 10 18 1 0
BITMAP
E000
E000
E000
E000
E000
E3C0
E780
EF00
EE00
EC00
FC00
FE00
F600
E700
E700
E380
E380
E1C0
ENDCHAR

STARTCHAR l
ENCODING 108
SWIDTH 228 0
DWIDTH 6 0
BBX 3 18 1 0
BITMAP
E0
E0
E0
E0
E0
E0
E0
E0
E0
E0
E0
E0
E0
E0
E0
E0
E0
E0
ENDCHAR

STARTCHAR m
ENCODING 109
SWIDTH 729 0
DWIDTH 18 0
BBX 16 13 1 0
BITMAP
E71C
EFBE
FFFF
F1C7
E1C7
E1C7
E1C7
E1C7
E1C7
E1C7
E1C7
E1C7
E1C7
ENDCHAR

STARTCHAR n
ENCODING 110
SWIDTH 501 0
DWIDTH 13 0
BBX 10 13 1 0
BITMAP
E700
EF80
FFC0
F1C0
E1C0
E1C0
E1C0
E1C0
E1C0
E1C0
E1C0
E1C0
E1C0
ENDCHAR

STARTCHAR o
ENCODING 111
SWIDTH 501 0
DWIDTH 13 0
BBX 11 13 1 0
BITMAP
1E00
3F80
7FC0
71C0
E0E0
E0E0
E0E0
E0E0
E0E0
71C0
7FC0
3F80
0E00
ENDCHAR

STARTCHAR p
ENCODING 112
SWIDTH 501 0
DWIDTH 13 0
BBX 11 18 1 -5
BITMAP
E700
EF80
FFC0
F1E0
E0E0
E0E0
E0E0
E0E0
E0E0
F1C0
FFC0
EF80
E700
E000
E000
E000
E000
E000
ENDCHAR

STARTCHAR q
ENCODING 113
SWIDTH 501 0
DWIDTH 13 0
BBX 10 18 1 -5
BITMAP
1DC0
3EC0
7FC0
F1C0
E1C0
E1C0
E1C0
E1C0
E1C0
73C0
7FC0
3EC0
1DC0
01C0
01C0
01C0
01C0
01C0
ENDCHAR

STARTCHAR r
ENCODING 114
SWIDTH 319 0
DWIDTH 8 0
BBX 7 13 1 0
BITMAP
EE
EE
FC
F0
E0
E0
E0
E0
E0
E0
E0
E0
E0
ENDCHAR

STARTCHAR s
ENCODING 115
SWIDTH 456 0
DWIDTH 11 0
BBX 10 13 1 0
BITMAP
3F00
7F80
E3C0
E100
F800
7F00
3F80
07C0
61C0
E1C0
7F80
7F80
1E00
ENDCHAR

STARTCHAR t
ENCODING 116
SWIDTH 273 0
DWIDTH 7 0
BBX 6 18 1 0
BITMAP
10
30
70
70
70
FC
FC
FC
70
70
70
70
70
70
70
7C
7C
3C
ENDCHAR

STARTCHAR u
ENCODING 117
SWIDTH 501 0
DWIDTH 13 0
BBX 10 13 1 0
BITMAP
E1C0
E1C0
E1C0
E1C0
E1C0
E1C0
E1C0
E1C0
E1C0
E3C0
FFC0
7EC0
39C0
ENDCHAR

STARTCHAR v
ENCODING 118
SWIDTH 456 0
DWIDTH 11 0
BBX 11 13 0 0
BITMAP
E0E0
70E0
70C0
71C0
39C0
3980
3B80
1B80
1D00
1F00
0F00
0E00
0E00
ENDCHAR

STARTCHAR w
ENCODING 119
SWIDTH 638 0
DWIDTH 16 0
BBX 16 13 0 0
BITMAP
E187
E3C7
63C6
73CE
73CE
776C
376C
3A6C
3E7C
1E78
1E78
1C78
1C38
ENDCHAR

STARTCHAR x
ENCODING 120
SWIDTH 456 0
DWIDTH 11 0
BBX 11 13 0 0
BITMAP
F1E0
71C0
3BC0
3D80
1F00
0E00
0F00
1F00
1F80
3B80
79C0
71E0
F0E0
ENDCHAR

STARTCHAR y
ENCODING 121
SWIDTH 456 0
DWIDTH 11 0
BBX 11 19 0 -6
BITMAP
E0E0
70E0
70C0
71C0
71C0
39C0
3980
3B80
1B80
1D00
1F00
0F00
0F00
0E00
0E00
1E00
7C00
7C00
7800
ENDCHAR

STARTCHAR z
ENCODING 122
SWIDTH 410 0
DWIDTH 10 0
BBX 10 13 0 0
BITMAP
7FC0
7FC0
7BC0
0780
0700
0E00
1E00
3C00
3800
7000
FFC0
FFC0
FFC0
ENDCHAR

STARTCHAR braceleft
ENCODING 123
SWIDTH 319 0
DWIDTH 8 0
BBX 7 24 1 -6
BITMAP
0E
1E
3E
38
38
38
38
38
38
30
F0
E0
F0
F0
38
38
38
38
38
38
38
3E
1E
0E
ENDCHAR

STARTCHAR bar
ENCODING 124
SWIDTH 230 0
DWIDTH 6 0
BBX 2 23 2 -5
BITMAP
C0
C0
C0
C0
C0
C0
C0
C0
C0
C0
C0
C0
C0
C0
C0
C0
C0
C0
C0
C0
C0
C0
C0
ENDCHAR

STARTCHAR braceright
ENCODING 125
SWIDTH 319 0
DWIDTH 8 0
BBX 7 24 0 -6
BITMAP
E0
F0
F8
38
38
38
38
38
38
18
1E
0E
1E
1E
18
38
38
38
38
38
38
F8
F0
E0
ENDCHAR

STARTCHAR asciitilde
ENCODING 126
SWIDTH 479 0
DWIDTH 12 0
BBX 10 5 1 6
BITMAP
7840
FE40
FFC0
8FC0
8780
ENDCHAR

STARTCHAR space
ENCODING 160
SWIDTH 228 0
DWIDTH 7 0
BBX 0 0 0 0
BITMAP
ENDCHAR

STARTCHAR Aogonek
ENCODING 161
SWIDTH 592 0
DWIDTH 15 0
BBX 16 23 0 -5
BITMAP
0380
0780
07C0
07C0
0EC0
0EE0
0EE0
1CE0
1CF0
1C70
3870
3FF8
3FF8
7FF8
703C
701C
F01C
E01E
0018
0018
0018
001F
000E
ENDCHAR

STARTCHAR afii240
ENCODING 162
SWIDTH 556 0
DWIDTH 14 0
BBX 12 13 2 0
BITMAP
E1E0
E3C0
E780
EF00
EE00
FF00
FF00
F780
E380
E3C0
E1C0
E1E0
E0F0
ENDCHAR

STARTCHAR Rcommaaccent
ENCODING 163
SWIDTH 592 0
DWIDTH 15 0
BBX 13 23 1 -5
BITMAP
FFC0
FFE0
FFF0
E070
E070
E070
E070
FFE0
FFE0
FF80
E380
E1C0
E1E0
E0E0
E0F0
E070
E078
E038
0000
0600
0600
0200
0400
ENDCHAR

STARTCHAR currency
ENCODING 164
SWIDTH 456 0
DWIDTH 11 0
BBX 10 13 1 2
BITMAP
4080
6E80
FFC0
7F80
7380
6180
6180
6180
7380
7F80
FFC0
6EC0
4080
ENDCHAR

STARTCHAR Itilde
ENCODING 165
SWIDTH 228 0
DWIDTH 6 0
BBX 7 22 -1 0
BITMAP
66
FE
8C
00
38
38
38
38
38
38
38
38
38
38
38
38
38
38
38
38
38
38
ENDCHAR

STARTCHAR Lcommaaccent
ENCODING 166
SWIDTH 501 0
DWIDTH 13 0
BBX 11 23 1 -5
BITMAP
E000
E000
E000
E000
E000
E000
E000
E000
E000
E000
E000
E000
E000
E000
E000
FFE0
FFE0
FFE0
0000
0C00
0C00
0400
0800
ENDCHAR

STARTCHAR section
ENCODING 167
SWIDTH 456 0
DWIDTH 11 0
BBX 10 24 0 -6
BITMAP
1E00
3F00
7F80
7380
7100
7800
3C00
7E00
7700
E780
E3C0
E1C0
70C0
78C0
3DC0
1F80
0F80
0780
01C0
71C0
71C0
7FC0
3F80
0E00
ENDCHAR

STARTCHAR hungarumlaut
ENCODING 168
SWIDTH 273 0
DWIDTH 7 0
BBX 8 4 1 14
BITMAP
77
66
EC
CC
ENDCHAR

STARTCHAR Scaron
ENCODING 169
SWIDTH 547 0
DWIDTH 14 0
BBX 12 23 1 0
BITMAP
3980
1B80
0F00
0E00
0000
1F80
7FC0
7FE0
F0E0
E0F0
E000
F800
7F80
3FC0
1FE0
03F0
0070
E070
E070
F0F0
7FE0
7FC0
1F80
ENDCHAR

STARTCHAR Emacron
ENCODING 170
SWIDTH 547 0
DWIDTH 14 0
BBX 11 22 1 0
BITMAP
3F80
3F80
0000
0000
FFE0
FFE0
FFE0
E000
E000
E000
E000
FFC0
FFC0
FFC0
E000
E000
E000
E000
E000
FFE0
FFE0
FFE0
ENDCHAR

STARTCHAR Gcommaaccent
ENCODING 171
SWIDTH 638 0
DWIDTH 16 0
BBX 14 23 1 -5
BITMAP
0FC0
1FF0
3FF8
7878
703C
E010
E000
E000
E1FC
E1FC
E1FC
E01C
701C
701C
787C
3FFC
1FF8
07C0
0000
0300
0300
0100
0300
ENDCHAR

STARTCHAR afii237
ENCODING 172
SWIDTH 611 0
DWIDTH 15 0
BBX 14 18 1 0
BITMAP
FFFC
FFFC
FFFC
0780
0780
0780
0780
0780
0780
7FF8
7FF8
0780
0780
0780
0780
0780
0780
0780
ENDCHAR

STARTCHAR hyphen
ENCODING 173
SWIDTH 273 0
DWIDTH 7 0
BBX 5 3 1 5
BITMAP
F8
F8
F8
ENDCHAR

STARTCHAR Zcaron
ENCODING 174
SWIDTH 501 0
DWIDTH 13 0
BBX 12 23 0 0
BITMAP
19C0
0D80
0F00
0600
0000
7FF0
7FF0
7FF0
00E0
01E0
03C0
0380
0780
0F00
0E00
1E00
3C00
3800
7800
F000
FFF0
FFF0
FFF0
ENDCHAR

STARTCHAR macron
ENCODING 175
SWIDTH 273 0
DWIDTH 7 0
BBX 7 2 0 15
BITMAP
FE
FE
ENDCHAR

STARTCHAR degree
ENCODING 176
SWIDTH 328 0
DWIDTH 8 0
BBX 7 8 1 10
BITMAP
38
7C
EE
C6
C6
EE
7C
38
ENDCHAR

STARTCHAR aogonek
ENCODING 177
SWIDTH 456 0
DWIDTH 11 0
BBX 12 18 0 -5
BITMAP
1F00
7F80
7FC0
E1C0
01C0
0FC0
3FC0
79C0
E1C0
E1C0
F3C0
7EC0
3CE0
0180
0180
0180
01F0
00E0
ENDCHAR

STARTCHAR ogonek
ENCODING 178
SWIDTH 273 0
DWIDTH 7 0
BBX 5 6 1 -5
BITMAP
40
C0
C0
C0
F8
70
ENDCHAR

STARTCHAR rcommaaccent
ENCODING 179
SWIDTH 319 0
DWIDTH 8 0
BBX 7 18 1 -5
BITMAP
EE
EE
FC
F0
E0
E0
E0
E0
E0
E0
E0
E0
E0
00
30
30
10
20
ENDCHAR

STARTCHAR acute
ENCODING 180
SWIDTH 273 0
DWIDTH 7 0
BBX 4 3 2 15
BITMAP
70
60
C0
ENDCHAR

STARTCHAR itilde
ENCODING 181
SWIDTH 228 0
DWIDTH 6 0
BBX 7 18 -1 0
BITMAP
72
FE
DC
00
00
38
38
38
38
38
38
38
38
38
38
38
38
38
ENDCHAR

STARTCHAR lcommaaccent
ENCODING 182
SWIDTH 228 0
DWIDTH 6 0
BBX 3 23 2 -5
BITMAP
E0
E0
E0
E0
E0
E0
E0
E0
E0
E0
E0
E0
E0
E0
E0
E0
E0
E0
00
C0
C0
40
80
ENDCHAR

STARTCHAR caron
ENCODING 183
SWIDTH 273 0
DWIDTH 7 0
BBX 7 3 0 15
BITMAP
EE
7C
38
ENDCHAR

STARTCHAR commaaccent
ENCODING 184
SWIDTH 333 0
DWIDTH 8 0
BBX 2 4 3 -5
BITMAP
C0
C0
40
80
ENDCHAR

STARTCHAR scaron
ENCODING 185
SWIDTH 456 0
DWIDTH 11 0
BBX 10 18 1 0
BITMAP
7300
3A00
1E00
0000
0000
3F00
7F80
E3C0
E100
F800
7F00
3F80
0FC0
61C0
E1C0
7F80
7F80
1E00
ENDCHAR

STARTCHAR emacron
ENCODING 186
SWIDTH 456 0
DWIDTH 11 0
BBX 10 17 1 0
BITMAP
3F00
3F00
0000
0000
1E00
3F00
7F80
6180
E1C0
FFC0
FFC0
E000
E100
73C0
7F80
3F00
1E00
ENDCHAR

STARTCHAR gcommaaccent
ENCODING 187
SWIDTH 501 0
DWIDTH 13 0
BBX 10 23 1 -5
BITMAP
0400
0800
0C00
0C00
0000
1DC0
3EC0
7FC0
73C0
E1C0
E1C0
E1C0
E1C0
E1C0
73C0
7FC0
3EC0
1DC0
01C0
F1C0
7F80
7F80
1E00
ENDCHAR

STARTCHAR afii253
ENCODING 188
SWIDTH 333 0
DWIDTH 8 0
BBX 8 17 0 0
BITMAP
08
38
38
38
FF
FF
FF
38
38
38
FF
FF
38
38
3F
3F
1F
ENDCHAR

STARTCHAR afii238
ENCODING 189
SWIDTH 723 0
DWIDTH 18 0
BBX 15 18 2 0
BITMAP
F1F0
F7F8
F7FC
FC7C
F83C
F01E
F01E
F01E
F01E
F01E
F01E
F01E
F01E
F01C
F03C
F1FC
F3F8
F1F0
ENDCHAR

STARTCHAR zcaron
ENCODING 190
SWIDTH 410 0
DWIDTH 10 0
BBX 10 18 0 0
BITMAP
3380
1B00
1E00
0000
0000
7FC0
7FC0
7BC0
0780
0700
0E00
1E00
3C00
3800
7000
FFC0
FFC0
FFC0
ENDCHAR

STARTCHAR afii254
ENCODING 191
SWIDTH 611 0
DWIDTH 15 0
BBX 11 18 2 -5
BITMAP
E780
EFC0
FFE0
F1E0
E0E0
E0E0
E0E0
E0E0
E0E0
E0E0
E0E0
E0E0
E0E0
00E0
01E0
03E0
07E0
07C0
ENDCHAR

STARTCHAR Amacron
ENCODING 192
SWIDTH 592 0
DWIDTH 15 0
BBX 15 22 0 0
BITMAP
0FE0
0FE0
0000
0000
0380
0780
07C0
07C0
0EC0
0EE0
0EE0
1CE0
1C70
1C70
3870
3FF8
3FF8
7FF8
703C
701C
F01C
E01E
ENDCHAR

STARTCHAR Aacute
ENCODING 193
SWIDTH 592 0
DWIDTH 15 0
BBX 15 23 0 0
BITMAP
01C0
0180
0380
0300
0000
0380
0780
07C0
07C0
0EC0
0EE0
0EE0
1CE0
1C70
1C70
3870
3FF8
3FF8
7FF8
703C
701C
F01C
E01E
ENDCHAR

STARTCHAR Acircumflex
ENCODING 194
SWIDTH 592 0
DWIDTH 15 0
BBX 15 23 0 0
BITMAP
0380
07C0
06C0
0EE0
0000
0380
0780
07C0
07C0
0EC0
0EE0
0EE0
1CE0
1C70
1C70
3870
3FF8
3FF8
7FF8
703C
701C
F01C
E01E
ENDCHAR

STARTCHAR Atilde
ENCODING 195
SWIDTH 592 0
DWIDTH 15 0
BBX 15 22 0 0
BITMAP
0660
0FE0
08C0
0000
0380
0780
07C0
07C0
0EC0
0EE0
0EE0
1CE0
1C70
1C70
3870
3FF8
3FF8
7FF8
703C
701C
F01C
E01E
ENDCHAR

STARTCHAR Adieresis
ENCODING 196
SWIDTH 592 0
DWIDTH 15 0
BBX 14 23 0 0
BITMAP
0CC0
0CC0
0CC0
0000
0000
0780
0780
0780
0FC0
0EC0
0EC0
1DC0
1CE0
1CE0
38E0
3870
3FF0
7FF0
7FF8
7038
7038
E01C
E01C
ENDCHAR

STARTCHAR Aring
ENCODING 197
SWIDTH 592 0
DWIDTH 15 0
BBX 14 23 0 0
BITMAP
0780
0480
0480
0300
0000
0780
0780
0F80
0FC0
0EC0
0EC0
1CE0
1CE0
1CE0
3870
3870
3FF0
7FF8
7FF8
7038
E03C
E01C
E01C
ENDCHAR

STARTCHAR AE
ENCODING 198
SWIDTH 820 0
DWIDTH 21 0
BBX 21 18 -1 0
BITMAP
01FFF0
03FFF0
03FFF0
03B800
073800
073800
0F3800
0E3FF0
0E3FF0
1C3FF0
1C3800
1FF800
3FF800
3FF800
783800
703FF8
703FF8
F03FF8
ENDCHAR

STARTCHAR Iogonek
ENCODING 199
SWIDTH 228 0
DWIDTH 6 0
BBX 5 23 1 -5
BITMAP
E0
E0
E0
E0
E0
E0
E0
E0
E0
E0
E0
E0
E0
E0
E0
E0
E0
E0
C0
C0
C0
F8
70
ENDCHAR

STARTCHAR Ccaron
ENCODING 200
SWIDTH 592 0
DWIDTH 15 0
BBX 13 23 1 0
BITMAP
19C0
0D80
0F00
0700
0000
0F80
1FE0
3FF0
78F0
7078
F020
E000
E000
E000
E000
E000
E020
F038
7070
78F0
3FF0
1FE0
0F80
ENDCHAR

STARTCHAR Eacute
ENCODING 201
SWIDTH 547 0
DWIDTH 14 0
BBX 11 23 1 0
BITMAP
0780
0600
0E00
0C00
0000
FFE0
FFE0
FFE0
E000
E000
E000
E000
FFC0
FFC0
FFC0
E000
E000
E000
E000
E000
FFE0
FFE0
FFE0
ENDCHAR

STARTCHAR Eogonek
ENCODING 202
SWIDTH 547 0
DWIDTH 14 0
BBX 12 23 1 -5
BITMAP
FFE0
FFE0
FFE0
E000
E000
E000
E000
FFE0
FFE0
FFE0
E000
E000
E000
E000
E000
FFF0
FFF0
FFF0
0180
0180
0180
01F0
00E0
ENDCHAR

STARTCHAR Edieresis
ENCODING 203
SWIDTH 547 0
DWIDTH 14 0
BBX 11 23 1 0
BITMAP
1980
1980
1980
0000
0000
FFE0
FFE0
FFE0
E000
E000
E000
E000
FFE0
FFE0
FFE0
E000
E000
E000
E000
E000
FFE0
FFE0
FFE0
ENDCHAR

STARTCHAR Edotaccent
ENCODING 204
SWIDTH 547 0
DWIDTH 14 0
BBX 11 23 2 0
BITMAP
0E00
0E00
0E00
0000
0000
FFE0
FFE0
FFE0
E000
E000
E000
E000
FFC0
FFC0
FFC0
E000
E000
E000
E000
E000
FFE0
FFE0
FFE0
ENDCHAR

STARTCHAR Iacute
ENCODING 205
SWIDTH 228 0
DWIDTH 6 0
BBX 5 23 1 0
BITMAP
78
70
E0
C0
00
E0
E0
E0
E0
E0
E0
E0
E0
E0
E0
E0
E0
E0
E0
E0
E0
E0
E0
ENDCHAR

STARTCHAR Icircumflex
ENCODING 206
SWIDTH 228 0
DWIDTH 6 0
BBX 7 23 -1 0
BITMAP
38
7C
6C
EE
00
38
38
38
38
38
38
38
38
38
38
38
38
38
38
38
38
38
38
ENDCHAR

STARTCHAR Imacron
ENCODING 207
SWIDTH 228 0
DWIDTH 6 0
BBX 7 22 -1 0
BITMAP
FE
FE
00
00
38
38
38
38
38
38
38
38
38
38
38
38
38
38
38
38
38
38
ENDCHAR

STARTCHAR Eth
ENCODING 208
SWIDTH 592 0
DWIDTH 15 0
BBX 13 18 1 0
BITMAP
7F80
7FE0
7FF0
70F0
7078
7038
7038
7038
FE38
FE38
7038
7038
7038
7070
70F0
7FE0
7FE0
7F80
ENDCHAR

STARTCHAR Ncommaaccent
ENCODING 209
SWIDTH 592 0
DWIDTH 15 0
BBX 12 23 1 -5
BITMAP
E070
F070
F070
F870
F870
FC70
EC70
EE70
EE70
E770
E770
E3B0
E3F0
E1F0
E1F0
E0F0
E0F0
E070
0000
0600
0600
0200
0400
ENDCHAR

STARTCHAR Omacron
ENCODING 210
SWIDTH 638 0
DWIDTH 16 0
BBX 14 22 1 0
BITMAP
0FC0
0FC0
0000
0000
0FC0
1FE0
3FF0
7878
7038
F01C
E01C
E01C
E01C
E01C
E01C
E01C
F03C
7038
7878
3FF0
1FE0
0FC0
ENDCHAR

STARTCHAR Kcommaaccent
ENCODING 211
SWIDTH 592 0
DWIDTH 15 0
BBX 13 23 1 -5
BITMAP
E078
E0F0
E1E0
E1E0
E3C0
E780
EF00
FF00
FF00
FF80
FBC0
F1C0
E1E0
E0E0
E0F0
E070
E078
E038
0000
0600
0600
0200
0400
ENDCHAR

STARTCHAR Ocircumflex
ENCODING 212
SWIDTH 638 0
DWIDTH 16 0
BBX 14 23 1 0
BITMAP
0300
0780
0EC0
0CC0
0000
0FC0
1FE0
3FF0
7878
7038
F01C
E01C
E01C
E01C
E01C
E01C
E01C
F03C
7038
7878
3FF0
1FE0
0FC0
ENDCHAR

STARTCHAR Otilde
ENCODING 213
SWIDTH 638 0
DWIDTH 16 0
BBX 14 22 1 0
BITMAP
0E40
0FC0
09C0
0000
0FC0
1FE0
3FF0
7878
7038
F01C
E01C
E01C
E01C
E01C
E01C
E01C
F03C
7038
7878
3FF0
1FE0
0FC0
ENDCHAR

STARTCHAR Odieresis
ENCODING 214
SWIDTH 638 0
DWIDTH 16 0
BBX 14 23 1 0
BITMAP
0CC0
0CC0
0CC0
0000
0000
0FC0
1FE0
3FF0
7878
7038
F03C
E01C
E01C
E01C
E01C
E01C
E01C
F03C
7038
7878
3FF0
1FE0
0FC0
ENDCHAR

STARTCHAR multiply
ENCODING 215
SWIDTH 479 0
DWIDTH 12 0
BBX 10 12 1 3
BITMAP
2080
6180
F3C0
7B80
3F00
1E00
1E00
3F00
7B80
F3C0
6180
4080
ENDCHAR

STARTCHAR Oslash
ENCODING 216
SWIDTH 638 0
DWIDTH 16 0
BBX 14 20 1 -1
BITMAP
0004
0FCC
1FEC
3FF8
7878
7078
F0FC
E0DC
E19C
E39C
E71C
E61C
EC1C
FC3C
7838
7878
7FF0
EFE0
CFC0
4000
ENDCHAR

STARTCHAR Uogonek
ENCODING 217
SWIDTH 592 0
DWIDTH 15 0
BBX 12 23 2 -5
BITMAP
E070
E070
E070
E070
E070
E070
E070
E070
E070
E070
E070
E070
E070
E0F0
F0F0
7FE0
3FC0
1F80
0C00
0C00
0C00
0780
0780
ENDCHAR

STARTCHAR Uacute
ENCODING 218
SWIDTH 592 0
DWIDTH 15 0
BBX 12 23 1 0
BITMAP
0380
0700
0600
0E00
0000
E070
E070
E070
E070
E070
E070
E070
E070
E070
E070
E070
E070
E070
E070
70F0
7FE0
3FC0
1F80
ENDCHAR

STARTCHAR Ucircumflex
ENCODING 219
SWIDTH 592 0
DWIDTH 15 0
BBX 12 23 1 0
BITMAP
0700
0F00
1D80
19C0
0000
E070
E070
E070
E070
E070
E070
E070
E070
E070
E070
E070
E070
E070
E070
70F0
7FE0
3FC0
1F80
ENDCHAR

STARTCHAR Udieresis
ENCODING 220
SWIDTH 592 0
DWIDTH 15 0
BBX 12 23 1 0
BITMAP
1980
1980
1980
0000
0000
E070
E070
E070
E070
E070
E070
E070
E070
E070
E070
E070
E070
E070
E070
70F0
7FE0
3FC0
1F80
ENDCHAR

STARTCHAR Utilde
ENCODING 221
SWIDTH 592 0
DWIDTH 15 0
BBX 12 22 1 0
BITMAP
1CC0
1F80
3380
0000
E070
E070
E070
E070
E070
E070
E070
E070
E070
E070
E070
E070
E070
F070
70F0
7FE0
3FC0
1F80
ENDCHAR

STARTCHAR Umacron
ENCODING 222
SWIDTH 592 0
DWIDTH 15 0
BBX 12 22 1 0
BITMAP
1F80
1F80
0000
0000
E070
E070
E070
E070
E070
E070
E070
E070
E070
E070
E070
E070
E070
E070
70F0
7FE0
3FC0
1F80
ENDCHAR

STARTCHAR germandbls
ENCODING 223
SWIDTH 501 0
DWIDTH 13 0
BBX 10 18 2 0
BITMAP
3C00
7E00
7F00
E700
E700
E700
E600
EE00
EE00
EF00
E780
E380
E1C0
E1C0
E5C0
EFC0
EF80
E700
ENDCHAR

STARTCHAR amacron
ENCODING 224
SWIDTH 456 0
DWIDTH 11 0
BBX 11 17 0 0
BITMAP
3F80
3F80
0000
0000
1F00
7F80
7FC0
E1C0
01C0
0FC0
3FC0
79C0
E1C0
E1C0
F3C0
7FC0
7CE0
ENDCHAR

STARTCHAR aacute
ENCODING 225
SWIDTH 456 0
DWIDTH 11 0
BBX 11 18 0 0
BITMAP
0780
0700
0E00
0C00
0000
1F00
7F80
7FC0
E1C0
01C0
0FC0
3FC0
79C0
E1C0
E1C0
F3C0
7FC0
7CE0
ENDCHAR

STARTCHAR acircumflex
ENCODING 226
SWIDTH 456 0
DWIDTH 11 0
BBX 11 18 0 0
BITMAP
0E00
1F00
3B00
3380
0000
1F00
7F80
7FC0
E1C0
01C0
0FC0
3FC0
79C0
E1C0
E1C0
F3C0
7FC0
7CE0
ENDCHAR

STARTCHAR atilde
ENCODING 227
SWIDTH 456 0
DWIDTH 11 0
BBX 11 18 0 0
BITMAP
3980
3F80
2700
0000
0000
1F00
7F80
7FC0
E1C0
01C0
0FC0
3FC0
79C0
E1C0
E1C0
F3C0
7FC0
7CE0
ENDCHAR

STARTCHAR adieresis
ENCODING 228
SWIDTH 456 0
DWIDTH 11 0
BBX 10 18 1 0
BITMAP
3300
3300
3300
0000
0000
3E00
7F00
FF80
E380
0380
0F80
7F80
7380
E380
E380
E780
7F80
7DC0
ENDCHAR

STARTCHAR aring
ENCODING 229
SWIDTH 456 0
DWIDTH 11 0
BBX 11 18 1 0
BITMAP
0C00
1200
1200
0C00
0000
1F00
7F80
7FC0
E1C0
01C0
0FC0
7FC0
79C0
E1C0
E3C0
F3C0
7EC0
7DE0
ENDCHAR

STARTCHAR ae
ENCODING 230
SWIDTH 729 0
DWIDTH 18 0
BBX 17 13 1 0
BITMAP
1F3C00
7FFE00
FFFF00
61C300
01C380
3FFF80
7EFF80
F1C000
E1C200
E1E780
F7FF00
7F7E00
3C3C00
ENDCHAR

STARTCHAR iogonek
ENCODING 231
SWIDTH 228 0
DWIDTH 6 0
BBX 5 23 1 -5
BITMAP
E0
E0
E0
00
00
E0
E0
E0
E0
E0
E0
E0
E0
E0
E0
E0
E0
E0
C0
C0
C0
F8
70
ENDCHAR

STARTCHAR ccaron
ENCODING 232
SWIDTH 456 0
DWIDTH 11 0
BBX 10 18 1 0
BITMAP
3300
3B00
1E00
0E00
0000
1E00
3F80
7F80
71C0
E100
E000
E000
E000
E1C0
71C0
7F80
3F80
1E00
ENDCHAR

STARTCHAR eacute
ENCODING 233
SWIDTH 456 0
DWIDTH 11 0
BBX 10 18 1 0
BITMAP
0700
0E00
0C00
1800
0000
1E00
3F00
7F80
6180
E1C0
FFC0
FFC0
E000
E100
73C0
7F80
3F00
1E00
ENDCHAR

STARTCHAR eogonek
ENCODING 234
SWIDTH 456 0
DWIDTH 11 0
BBX 10 18 1 -5
BITMAP
1E00
3F00
7F80
71C0
E1C0
FFC0
FFC0
E000
E100
71C0
7F80
3F00
1E00
0C00
0C00
0C00
0F00
0700
ENDCHAR

STARTCHAR edieresis
ENCODING 235
SWIDTH 456 0
DWIDTH 11 0
BBX 10 18 1 0
BITMAP
3300
3300
3300
0000
0000
1E00
3F00
7F80
6180
E1C0
FFC0
FFC0
E000
E100
73C0
7F80
3F00
1E00
ENDCHAR

STARTCHAR edotaccent
ENCODING 236
SWIDTH 456 0
DWIDTH 11 0
BBX 10 18 1 0
BITMAP
1C00
1C00
1C00
0000
0000
1E00
3F00
7F80
E380
E1C0
FFC0
FFC0
E000
E100
63C0
7F80
3F00
1E00
ENDCHAR

STARTCHAR iacute
ENCODING 237
SWIDTH 228 0
DWIDTH 6 0
BBX 4 18 1 0
BITMAP
70
60
E0
C0
00
E0
E0
E0
E0
E0
E0
E0
E0
E0
E0
E0
E0
E0
ENDCHAR

STARTCHAR icircumflex
ENCODING 238
SWIDTH 228 0
DWIDTH 6 0
BBX 7 18 -1 0
BITMAP
38
7C
6C
C6
00
38
38
38
38
38
38
38
38
38
38
38
38
38
ENDCHAR

STARTCHAR imacron
ENCODING 239
SWIDTH 228 0
DWIDTH 6 0
BBX 7 17 -1 0
BITMAP
FE
FE
00
00
38
38
38
38
38
38
38
38
38
38
38
38
38
ENDCHAR

STARTCHAR dcroat
ENCODING 240
SWIDTH 501 0
DWIDTH 13 0
BBX 12 18 1 0
BITMAP
00E0
00E0
07F0
07F0
00E0
1CE0
3F60
7FE0
71E0
E0E0
E0E0
E0E0
E0E0
E0E0
71E0
7FE0
3F60
1CE0
ENDCHAR

STARTCHAR ncommaaccent
ENCODING 241
SWIDTH 501 0
DWIDTH 13 0
BBX 10 18 1 -5
BITMAP
E700
EF80
FFC0
F1C0
E1C0
E1C0
E1C0
E1C0
E1C0
E1C0
E1C0
E1C0
E1C0
0000
0C00
0C00
0400
0C00
ENDCHAR

STARTCHAR omacron
ENCODING 242
SWIDTH 501 0
DWIDTH 13 0
BBX 11 17 1 0
BITMAP
3F80
3F80
0000
0000
1F00
3F80
7FC0
71C0
E0E0
E0E0
E0E0
E0E0
E0E0
71C0
7FC0
3F80
0E00
ENDCHAR

STARTCHAR kcommaaccent
ENCODING 243
SWIDTH 456 0
DWIDTH 11 0
BBX 10 23 1 -5
BITMAP
E000
E000
E000
E000
E000
E380
E700
EF00
EE00
EC00
FC00
FE00
F600
E700
E700
E380
E380
E3C0
0000
1800
1800
0800
1800
ENDCHAR

STARTCHAR ocircumflex
ENCODING 244
SWIDTH 501 0
DWIDTH 13 0
BBX 11 18 1 0
BITMAP
0E00
1F00
1B00
3B80
0000
1E00
3F80
7FC0
71C0
E0E0
E0E0
E0E0
E0E0
E0E0
71C0
7FC0
3F80
0E00
ENDCHAR

STARTCHAR otilde
ENCODING 245
SWIDTH 501 0
DWIDTH 13 0
BBX 11 18 1 0
BITMAP
1980
3F80
2700
0000
0000
1E00
3F80
7FC0
71C0
E0E0
E0E0
E0E0
E0E0
E0E0
71C0
7FC0
3F80
0E00
ENDCHAR

STARTCHAR odieresis
ENCODING 246
SWIDTH 501 0
DWIDTH 13 0
BBX 11 18 1 0
BITMAP
3180
3180
3180
0000
0000
1F00
3F80
7FC0
71C0
E0E0
E0E0
E0E0
E0E0
E0E0
71C0
7FC0
3F80
0E00
ENDCHAR

STARTCHAR divide
ENCODING 247
SWIDTH 479 0
DWIDTH 12 0
BBX 11 13 0 2
BITMAP
0E00
0E00
0E00
0000
0000
FFE0
FFE0
FFE0
0000
0000
0E00
0E00
0E00
ENDCHAR

STARTCHAR oslash
ENCODING 248
SWIDTH 501 0
DWIDTH 13 0
BBX 11 13 1 0
BITMAP
0E60
3FC0
7FC0
71C0
E3E0
E6E0
E4E0
ECE0
F8E0
71C0
7FC0
7F80
CE00
ENDCHAR

STARTCHAR uogonek
ENCODING 249
SWIDTH 501 0
DWIDTH 13 0
BBX 12 18 1 -5
BITMAP
E1C0
E1C0
E1C0
E1C0
E1C0
E1C0
E1C0
E1C0
E1C0
E3C0
FFC0
7EC0
39C0
0180
0180
0180
01F0
00E0
ENDCHAR

STARTCHAR uacute
ENCODING 250
SWIDTH 501 0
DWIDTH 13 0
BBX 10 18 1 0
BITMAP
0700
0E00
0C00
1800
0000
E1C0
E1C0
E1C0
E1C0
E1C0
E1C0
E1C0
E1C0
E1C0
E3C0
FFC0
7EC0
39C0
ENDCHAR

STARTCHAR ucircumflex
ENCODING 251
SWIDTH 501 0
DWIDTH 13 0
BBX 10 18 1 0
BITMAP
1E00
1E00
3B00
3300
0000
E1C0
E1C0
E1C0
E1C0
E1C0
E1C0
E1C0
E1C0
E1C0
E3C0
FFC0
7EC0
39C0
ENDCHAR

STARTCHAR udieresis
ENCODING 252
SWIDTH 501 0
DWIDTH 13 0
BBX 10 18 1 0
BITMAP
3300
3300
3300
0000
0000
E1C0
E1C0
E1C0
E1C0
E1C0
E1C0
E1C0
E1C0
E1C0
E3C0
FFC0
7EC0
39C0
ENDCHAR

STARTCHAR utilde
ENCODING 253
SWIDTH 501 0
DWIDTH 13 0
BBX 10 18 1 0
BITMAP
3980
3F00
2700
0000
0000
E1C0
E1C0
E1C0
E1C0
E1C0
E1C0
E1C0
E1C0
E1C0
E3C0
FFC0
7EC0
39C0
ENDCHAR

STARTCHAR umacron
ENCODING 254
SWIDTH 501 0
DWIDTH 13 0
BBX 10 17 1 0
BITMAP
3F00
3F00
0000
0000
E1C0
E1C0
E1C0
E1C0
E1C0
E1C0
E1C0
E1C0
E1C0
E3C0
FFC0
7EC0
39C0
ENDCHAR

STARTCHAR dotaccent
ENCODING 255
SWIDTH 273 0
DWIDTH 7 0
BBX 3 3 2 15
BITMAP
E0
E0
E0
ENDCHAR
ENDFONT
